<?xml version="1.0" encoding="UTF-8" standalone="no"?>
<svg
   xmlns:dc="http://purl.org/dc/elements/1.1/"
   xmlns:cc="http://creativecommons.org/ns#"
   xmlns:rdf="http://www.w3.org/1999/02/22-rdf-syntax-ns#"
   xmlns:svg="http://www.w3.org/2000/svg"
   xmlns="http://www.w3.org/2000/svg"
   id="svg2"
   version="1.1"
   viewBox="0 0 309.6 37.97"
   height="37.97pt"
   width="309.6pt">
  <metadata
     id="metadata56">
    <rdf:RDF>
      <cc:Work
         rdf:about="">
        <dc:format>image/svg+xml</dc:format>
        <dc:type
           rdf:resource="http://purl.org/dc/dcmitype/StillImage" />
        <dc:title></dc:title>
      </cc:Work>
    </rdf:RDF>
  </metadata>
  <defs
     id="defs4">
    <clipPath
       id="clip1">
      <path
         id="path7"
         d="M 58 0 L 95 0 L 95 37.96875 L 58 37.96875 Z M 58 0 " />
    </clipPath>
    <clipPath
       id="clip2">
      <path
         id="path10"
         d="M 99 0 L 131 0 L 131 37.96875 L 99 37.96875 Z M 99 0 " />
    </clipPath>
    <clipPath
       id="clip3">
      <path
         id="path13"
         d="M 213 0 L 242 0 L 242 37.96875 L 213 37.96875 Z M 213 0 " />
    </clipPath>
    <clipPath
       id="clip4">
      <path
         id="path16"
         d="M 247 1 L 275 1 L 275 37.96875 L 247 37.96875 Z M 247 1 " />
    </clipPath>
    <clipPath
       id="clip5">
      <path
         id="path19"
         d="M 281 0 L 309.601562 0 L 309.601562 37.96875 L 281 37.96875 Z M 281 0 " />
    </clipPath>
  </defs>
  <g
     id="surface1085">
    <path
       id="path22"
       d="M 17.339844 11.800781 C 17.339844 7.824219 12.851562 7.621094 12.035156 7.621094 L 6.730469 7.621094 L 6.730469 15.832031 L 12.035156 15.832031 C 12.953125 15.832031 17.339844 15.730469 17.339844 11.800781 Z M 24.121094 11.800781 C 24.121094 22.308594 12.902344 22.410156 12.035156 22.410156 L 6.730469 22.410156 L 6.730469 36.433594 C 6.730469 36.636719 6.578125 36.839844 6.273438 36.839844 L 0.457031 36.839844 C 0.203125 36.839844 0 36.636719 0 36.433594 L 0 1.449219 C 0 1.246094 0.203125 1.042969 0.457031 1.042969 L 12.035156 1.042969 C 13.460938 1.042969 24.121094 1.246094 24.121094 11.800781 "
       style=" stroke:none;fill-rule:nonzero;fill:rgb(14.096069%,13.41095%,13.246155%);fill-opacity:1;" />
    <path
       id="path24"
       d="M 36.308594 15.78125 L 41.511719 15.78125 C 42.992188 15.78125 46.816406 15.574219 46.816406 11.648438 C 46.816406 7.722656 42.582031 7.519531 41.511719 7.519531 L 36.308594 7.519531 Z M 40.136719 22.308594 L 36.308594 22.308594 L 36.308594 36.332031 C 36.308594 36.535156 36.105469 36.738281 35.800781 36.738281 L 29.988281 36.738281 C 29.730469 36.738281 29.527344 36.535156 29.527344 36.332031 L 29.527344 1.449219 C 29.527344 1.246094 29.730469 1.042969 29.988281 1.042969 L 41.511719 1.042969 C 43.550781 1.042969 53.597656 1.144531 53.597656 11.648438 C 53.597656 17.105469 50.589844 19.960938 47.019531 21.234375 C 49.261719 26.285156 51.660156 31.179688 53.902344 36.175781 C 54.054688 36.484375 53.851562 36.738281 53.496094 36.738281 L 47.121094 36.738281 C 46.96875 36.738281 46.714844 36.585938 46.660156 36.484375 L 40.136719 22.308594 "
       style=" stroke:none;fill-rule:nonzero;fill:rgb(14.096069%,13.41095%,13.246155%);fill-opacity:1;" />
    <g
       id="g26"
       clip-rule="nonzero"
       clip-path="url(#clip1)">
      <path
         id="path28"
         d="M 87.207031 18.941406 C 87.207031 12.976562 83.585938 7.007812 76.496094 7.007812 C 69.308594 7.007812 65.738281 12.976562 65.738281 18.941406 C 65.738281 24.855469 69.308594 30.773438 76.496094 30.773438 C 83.585938 30.773438 87.207031 24.855469 87.207031 18.941406 Z M 94.089844 18.839844 C 94.089844 27.96875 88.175781 37.199219 76.496094 37.199219 C 64.617188 37.199219 58.800781 27.96875 58.800781 18.839844 C 58.800781 9.710938 64.617188 0.53125 76.496094 0.53125 C 88.175781 0.53125 94.089844 9.710938 94.089844 18.839844 "
         style=" stroke:none;fill-rule:nonzero;fill:rgb(14.096069%,13.41095%,13.246155%);fill-opacity:1;" />
    </g>
    <g
       id="g30"
       clip-rule="nonzero"
       clip-path="url(#clip2)">
      <path
         id="path32"
         d="M 125.253906 27.40625 C 125.457031 27.253906 125.761719 27.253906 125.964844 27.40625 L 129.996094 31.484375 C 130.199219 31.640625 130.199219 31.945312 129.996094 32.097656 C 126.832031 35.257812 122.394531 37.25 117.449219 37.25 C 107.660156 37.25 99.601562 30.160156 99.601562 19.042969 C 99.601562 8.386719 106.996094 0.53125 117.449219 0.53125 C 122.394531 0.53125 126.832031 2.46875 129.996094 5.683594 C 130.199219 5.835938 130.199219 6.140625 129.996094 6.292969 L 125.964844 10.324219 C 125.761719 10.476562 125.457031 10.476562 125.253906 10.324219 C 123.210938 8.335938 120.457031 7.058594 117.449219 7.058594 C 110.617188 7.058594 106.484375 12.3125 106.484375 19.042969 C 106.484375 26.234375 111.382812 30.671875 117.449219 30.671875 C 120.457031 30.671875 123.210938 29.445312 125.253906 27.40625 "
         style=" stroke:none;fill-rule:nonzero;fill:rgb(14.096069%,13.41095%,13.246155%);fill-opacity:1;" />
    </g>
    <path
       id="path34"
       d="M 206.164062 36.332031 C 206.164062 36.535156 205.960938 36.738281 205.652344 36.738281 L 199.84375 36.738281 C 199.738281 36.738281 199.484375 36.6875 199.433594 36.585938 L 183.113281 12.820312 L 183.113281 36.332031 C 183.113281 36.535156 182.910156 36.738281 182.65625 36.738281 L 176.84375 36.738281 C 176.535156 36.738281 176.382812 36.535156 176.382812 36.332031 L 176.382812 1.398438 C 176.382812 1.195312 176.535156 0.992188 176.84375 0.992188 L 182.707031 0.992188 C 182.808594 0.992188 183.011719 1.042969 183.0625 1.144531 L 199.433594 25.113281 L 199.433594 1.398438 C 199.433594 1.195312 199.636719 0.992188 199.941406 0.992188 L 205.652344 0.992188 C 205.960938 0.992188 206.164062 1.195312 206.164062 1.398438 L 206.164062 36.332031 "
       style=" stroke:none;fill-rule:nonzero;fill:rgb(14.096069%,13.41095%,13.246155%);fill-opacity:1;" />
    <g
       id="g36"
       clip-rule="nonzero"
       clip-path="url(#clip3)">
      <path
         id="path38"
         d="M 233.386719 11.675781 C 233.21875 9.855469 232.585938 8.5 231.496094 7.605469 C 230.40625 6.714844 228.769531 6.269531 226.59375 6.269531 C 222.570312 6.269531 220.5625 7.714844 220.5625 10.605469 C 220.5625 11.640625 220.980469 12.507812 221.8125 13.203125 C 222.648438 13.898438 223.984375 14.480469 225.824219 14.945312 C 228.003906 15.480469 229.894531 15.980469 231.496094 16.441406 C 233.097656 16.90625 234.5625 17.441406 235.890625 18.050781 C 236.640625 18.371094 237.347656 18.773438 238.011719 19.253906 C 238.675781 19.738281 239.238281 20.335938 239.695312 21.046875 C 240.15625 21.761719 240.523438 22.621094 240.796875 23.617188 C 241.066406 24.617188 241.203125 25.832031 241.203125 27.261719 C 241.203125 28.972656 240.863281 30.492188 240.183594 31.8125 C 239.503906 33.132812 238.585938 34.25 237.429688 35.160156 C 236.273438 36.070312 234.914062 36.765625 233.351562 37.246094 C 231.785156 37.730469 230.136719 37.96875 228.402344 37.96875 C 223.472656 37.96875 219.769531 36.960938 217.285156 34.945312 C 214.804688 32.929688 213.492188 29.957031 213.359375 26.027344 L 220.191406 26.027344 C 220.226562 27.847656 220.933594 29.285156 222.308594 30.339844 C 223.6875 31.394531 225.410156 31.917969 227.484375 31.917969 C 229.730469 31.917969 231.429688 31.492188 232.585938 30.636719 C 233.742188 29.78125 234.320312 28.621094 234.320312 27.160156 C 234.320312 26.589844 234.25 26.066406 234.113281 25.585938 C 233.980469 25.101562 233.714844 24.667969 233.320312 24.273438 C 232.929688 23.882812 232.394531 23.535156 231.714844 23.230469 C 231.03125 22.929688 230.144531 22.652344 229.054688 22.402344 C 226.464844 21.832031 224.222656 21.253906 222.328125 20.664062 C 220.4375 20.078125 218.878906 19.347656 217.652344 18.472656 C 216.425781 17.601562 215.519531 16.539062 214.941406 15.292969 C 214.359375 14.046875 214.070312 12.460938 214.070312 10.535156 C 214.070312 9.074219 214.328125 7.703125 214.839844 6.417969 C 215.351562 5.136719 216.132812 4.023438 217.1875 3.078125 C 218.246094 2.132812 219.546875 1.382812 221.097656 0.832031 C 222.648438 0.28125 224.480469 0.00390625 226.59375 0.00390625 C 228.636719 0.00390625 230.476562 0.28125 232.109375 0.832031 C 233.742188 1.386719 235.148438 2.171875 236.324219 3.191406 C 237.5 4.207031 238.410156 5.4375 239.058594 6.882812 C 239.707031 8.332031 240.0625 9.929688 240.132812 11.675781 L 233.386719 11.675781 "
         style=" stroke:none;fill-rule:nonzero;fill:rgb(14.096069%,13.41095%,13.246155%);fill-opacity:1;" />
    </g>
    <g
       id="g40"
       clip-rule="nonzero"
       clip-path="url(#clip4)">
      <path
         id="path42"
         d="M 247.730469 25.265625 L 247.730469 1.757812 C 247.730469 1.550781 247.9375 1.347656 248.242188 1.347656 L 254.003906 1.347656 C 254.3125 1.347656 254.515625 1.550781 254.515625 1.757812 L 254.515625 25.214844 C 254.921875 28.785156 257.882812 30.671875 261.195312 30.671875 C 264.5625 30.671875 267.875 28.886719 267.875 25.265625 L 267.875 1.757812 C 267.875 1.550781 268.078125 1.347656 268.386719 1.347656 L 274.199219 1.347656 C 274.453125 1.347656 274.65625 1.550781 274.65625 1.757812 L 274.65625 25.265625 C 274.65625 32.863281 268.84375 37.25 261.195312 37.25 C 253.800781 37.25 247.730469 32.660156 247.730469 25.265625 "
         style=" stroke:none;fill-rule:nonzero;fill:rgb(14.096069%,13.41095%,13.246155%);fill-opacity:1;" />
    </g>
    <g
       id="g44"
       clip-rule="nonzero"
       clip-path="url(#clip5)">
      <path
         id="path46"
         d="M 301.777344 11.675781 C 301.605469 9.855469 300.976562 8.5 299.886719 7.605469 C 298.796875 6.714844 297.160156 6.269531 294.980469 6.269531 C 290.960938 6.269531 288.953125 7.714844 288.953125 10.605469 C 288.953125 11.640625 289.367188 12.507812 290.203125 13.203125 C 291.039062 13.898438 292.375 14.480469 294.214844 14.945312 C 296.394531 15.480469 298.285156 15.980469 299.886719 16.441406 C 301.488281 16.90625 302.953125 17.441406 304.28125 18.050781 C 305.03125 18.371094 305.734375 18.773438 306.402344 19.253906 C 307.066406 19.738281 307.628906 20.335938 308.089844 21.046875 C 308.546875 21.761719 308.914062 22.621094 309.1875 23.617188 C 309.460938 24.617188 309.597656 25.832031 309.597656 27.261719 C 309.597656 28.972656 309.253906 30.492188 308.574219 31.8125 C 307.894531 33.132812 306.976562 34.25 305.820312 35.160156 C 304.664062 36.070312 303.304688 36.765625 301.742188 37.246094 C 300.179688 37.730469 298.527344 37.96875 296.796875 37.96875 C 291.863281 37.96875 288.15625 36.960938 285.675781 34.945312 C 283.195312 32.929688 281.886719 29.957031 281.75 26.027344 L 288.585938 26.027344 C 288.617188 27.847656 289.320312 29.285156 290.699219 30.339844 C 292.074219 31.394531 293.804688 31.917969 295.878906 31.917969 C 298.121094 31.917969 299.820312 31.492188 300.976562 30.636719 C 302.132812 29.78125 302.710938 28.621094 302.710938 27.160156 C 302.710938 26.589844 302.640625 26.066406 302.507812 25.585938 C 302.367188 25.101562 302.105469 24.667969 301.714844 24.273438 C 301.320312 23.882812 300.785156 23.535156 300.105469 23.230469 C 299.421875 22.929688 298.535156 22.652344 297.441406 22.402344 C 294.855469 21.832031 292.613281 21.253906 290.722656 20.664062 C 288.828125 20.078125 287.269531 19.347656 286.042969 18.472656 C 284.8125 17.601562 283.910156 16.539062 283.332031 15.292969 C 282.753906 14.046875 282.464844 12.460938 282.464844 10.535156 C 282.464844 9.074219 282.71875 7.703125 283.230469 6.417969 C 283.738281 5.136719 284.523438 4.023438 285.578125 3.078125 C 286.636719 2.132812 287.9375 1.382812 289.488281 0.832031 C 291.039062 0.28125 292.867188 0.00390625 294.980469 0.00390625 C 297.023438 0.00390625 298.863281 0.28125 300.5 0.832031 C 302.136719 1.386719 303.539062 2.171875 304.714844 3.191406 C 305.890625 4.207031 306.804688 5.4375 307.449219 6.882812 C 308.097656 8.332031 308.453125 9.929688 308.519531 11.675781 L 301.777344 11.675781 "
         style=" stroke:none;fill-rule:nonzero;fill:rgb(14.096069%,13.41095%,13.246155%);fill-opacity:1;" />
    </g>
    <path
       id="path48"
       d="M 137.992188 6.507812 L 165.996094 6.507812 L 165.996094 0.507812 L 137.992188 0.507812 Z M 137.992188 6.507812 "
       style=" stroke:none;fill-rule:nonzero;fill:rgb(44.244385%,74.757385%,89.28833%);fill-opacity:1;" />
    <path
       id="path50"
       d="M 137.992188 21.507812 L 165.996094 21.507812 L 165.996094 15.507812 L 137.992188 15.507812 Z M 137.992188 21.507812 "
       style=" stroke:none;fill-rule:nonzero;fill:rgb(27.908325%,58.815002%,78.358459%);fill-opacity:1;" />
    <path
       id="path52"
       d="M 137.992188 36.507812 L 165.996094 36.507812 L 165.996094 30.507812 L 137.992188 30.507812 Z M 137.992188 36.507812 "
       style=" stroke:none;fill-rule:nonzero;fill:rgb(22.869873%,49.269104%,67.640686%);fill-opacity:1;" />
  </g>
</svg>
